<?xml version="1.0" encoding="UTF-8" standalone="no"?>
<!-- Created with Inkscape (http://www.inkscape.org/) -->

<svg
   xmlns:dc="http://purl.org/dc/elements/1.1/"
   xmlns:cc="http://creativecommons.org/ns#"
   xmlns:rdf="http://www.w3.org/1999/02/22-rdf-syntax-ns#"
   xmlns:svg="http://www.w3.org/2000/svg"
   xmlns="http://www.w3.org/2000/svg"
   xmlns:xlink="http://www.w3.org/1999/xlink"
   xmlns:sodipodi="http://sodipodi.sourceforge.net/DTD/sodipodi-0.dtd"
   xmlns:inkscape="http://www.inkscape.org/namespaces/inkscape"
   width="100"
   height="100"
   id="svg2"
   version="1.1"
   inkscape:version="0.48.2 r9819"
   sodipodi:docname="Nuage.svg">
  <defs
     id="defs4">
    <linearGradient
       id="linearGradient3856">
      <stop
         style="stop-color:#ffffff;stop-opacity:1;"
         offset="0"
         id="stop3858" />
      <stop
         style="stop-color:#c7e3fb;stop-opacity:1;"
         offset="1"
         id="stop3860" />
    </linearGradient>
    <linearGradient
       id="linearGradient3818">
      <stop
         style="stop-color:#a3ffff;stop-opacity:1;"
         offset="0"
         id="stop3820" />
      <stop
         style="stop-color:#ffffff;stop-opacity:0;"
         offset="1"
         id="stop3822" />
    </linearGradient>
    <inkscape:perspective
       sodipodi:type="inkscape:persp3d"
       inkscape:vp_x="0 : 526.18109 : 1"
       inkscape:vp_y="0 : 1000 : 0"
       inkscape:vp_z="744.09448 : 526.18109 : 1"
       inkscape:persp3d-origin="372.04724 : 350.78739 : 1"
       id="perspective3792" />
    <radialGradient
       inkscape:collect="always"
       xlink:href="#linearGradient3818"
       id="radialGradient3826"
       cx="274.39575"
       cy="331.81378"
       fx="274.39575"
       fy="331.81378"
       r="24.536526"
       gradientTransform="matrix(1.179826,0.4051263,-0.63316622,1.8439335,160.74981,-395.72296)"
       gradientUnits="userSpaceOnUse" />
    <radialGradient
       inkscape:collect="always"
       xlink:href="#linearGradient3856"
       id="radialGradient3862"
       cx="377.85043"
       cy="338.07367"
       fx="377.85043"
       fy="338.07367"
       r="55.506695"
       gradientTransform="matrix(1.2021968,-0.37504908,0.36049093,1.1555315,-525.23693,753.23851)"
       gradientUnits="userSpaceOnUse" />
  </defs>
  <sodipodi:namedview
     id="base"
     pagecolor="#ffffff"
     bordercolor="#666666"
     borderopacity="1.0"
     inkscape:pageopacity="0.0"
     inkscape:pageshadow="2"
     inkscape:zoom="1.979899"
     inkscape:cx="26.180255"
     inkscape:cy="15.860273"
     inkscape:document-units="px"
     inkscape:current-layer="layer1"
     showgrid="false"
     inkscape:window-width="1920"
     inkscape:window-height="1018"
     inkscape:window-x="-8"
     inkscape:window-y="-8"
     inkscape:window-maximized="1" />
  <metadata
     id="metadata7">
    <rdf:RDF>
      <cc:Work
         rdf:about="">
        <dc:format>image/svg+xml</dc:format>
        <dc:type
           rdf:resource="http://purl.org/dc/dcmitype/StillImage" />
        <dc:title></dc:title>
      </cc:Work>
    </rdf:RDF>
  </metadata>
  <g
     inkscape:label="Calque 1"
     inkscape:groupmode="layer"
     id="layer1"
     transform="translate(0,-952.36218)">
    <path
       style="fill:url(#radialGradient3862);fill-opacity:1;stroke:#000000;stroke-width:1.1726774;stroke-opacity:1"
       d="m 73.252844,949.23367 c -6.0684,0 -11.35816,2.89756 -14.19102,7.21105 -3.96799,-3.17011 -9.29616,-5.1559 -15.19668,-5.1559 -5.52948,0 -10.57223,1.71928 -14.45175,4.54296 -2.53234,-1.7107 -5.3938,-2.66809 -8.41777,-2.66809 -10.40295,0 -18.8468599,11.36624 -18.8468599,25.41896 0,3.89504 0.66695,7.58839 1.82509,10.88869 -4.87350997,4.3271 -8.00805,10.86266 -8.00805,18.17186 0,8.795 4.51059001,16.4588 11.17403,20.5154 -0.062,0.7383 -0.0745,1.4799 -0.0745,2.2355 0,13.6544 10.3390899,24.7339 23.0929999,24.7339 10.26006,0 18.92938,-7.18 21.93834,-17.0902 5.00806,6.4024 14.26978,10.7084 24.88085,10.7084 15.92769,0 28.828986,-9.6855 28.828986,-21.6332 0,-6.1798 -3.4743,-11.7419 -9.013706,-15.684 0.17283,-1.0348 0.29797,-2.0899 0.29797,-3.1729 0,-6.561 -3.32472,-12.37297 -8.38052,-15.90034 0.85324,-1.95878 1.34088,-4.10513 1.34088,-6.34573 0,-4.69372 -2.06913,-8.93046 -5.40078,-12.0064 3.06975,-2.62109 4.99107,-6.28653 4.99107,-10.34786 0,-7.9651 -7.33741,-14.4221 -16.38858,-14.4221 z"
       id="path3763"
       inkscape:connector-curvature="0" />
  </g>
</svg>
