<?xml version="1.0" encoding="UTF-8" standalone="no"?>
<!-- Created with Inkscape (http://www.inkscape.org/) -->

<svg
   xmlns:dc="http://purl.org/dc/elements/1.1/"
   xmlns:cc="http://creativecommons.org/ns#"
   xmlns:rdf="http://www.w3.org/1999/02/22-rdf-syntax-ns#"
   xmlns:svg="http://www.w3.org/2000/svg"
   xmlns="http://www.w3.org/2000/svg"
   xmlns:xlink="http://www.w3.org/1999/xlink"
   xmlns:sodipodi="http://sodipodi.sourceforge.net/DTD/sodipodi-0.dtd"
   xmlns:inkscape="http://www.inkscape.org/namespaces/inkscape"
   width="100"
   height="100"
   id="svg2"
   version="1.1"
   inkscape:version="0.48.2 r9819"
   sodipodi:docname="Nuage2.svg"
   inkscape:export-filename="\\NEAMAR-VIRTUEL\MultiBrix\src\Assets\Nuage1.png"
   inkscape:export-xdpi="54.64098"
   inkscape:export-ydpi="54.64098">
  <defs
     id="defs4">
    <linearGradient
       id="linearGradient3856">
      <stop
         style="stop-color:#e1f5ff;stop-opacity:1;"
         offset="0"
         id="stop3858" />
      <stop
         style="stop-color:#c5dbfb;stop-opacity:1;"
         offset="1"
         id="stop3860" />
    </linearGradient>
    <linearGradient
       id="linearGradient3818">
      <stop
         style="stop-color:#a3ffff;stop-opacity:1;"
         offset="0"
         id="stop3820" />
      <stop
         style="stop-color:#ffffff;stop-opacity:0;"
         offset="1"
         id="stop3822" />
    </linearGradient>
    <inkscape:perspective
       sodipodi:type="inkscape:persp3d"
       inkscape:vp_x="0 : 526.18109 : 1"
       inkscape:vp_y="0 : 1000 : 0"
       inkscape:vp_z="744.09448 : 526.18109 : 1"
       inkscape:persp3d-origin="372.04724 : 350.78739 : 1"
       id="perspective3792" />
    <radialGradient
       inkscape:collect="always"
       xlink:href="#linearGradient3856"
       id="radialGradient3862"
       cx="377.85043"
       cy="338.07367"
       fx="377.85043"
       fy="338.07367"
       r="55.506695"
       gradientTransform="matrix(1.2021968,-0.37504908,0.36049093,1.1555315,-706.55931,775.96694)"
       gradientUnits="userSpaceOnUse" />
    <radialGradient
       inkscape:collect="always"
       xlink:href="#linearGradient3856"
       id="radialGradient3902"
       cx="50"
       cy="55.296875"
       fx="50"
       fy="55.296875"
       r="62.375"
       gradientTransform="matrix(0.96325343,0,0,1.0154912,-0.44555218,950.21126)"
       gradientUnits="userSpaceOnUse" />
  </defs>
  <sodipodi:namedview
     id="base"
     pagecolor="#ffffff"
     bordercolor="#666666"
     borderopacity="1.0"
     inkscape:pageopacity="0.0"
     inkscape:pageshadow="2"
     inkscape:zoom="1.979899"
     inkscape:cx="26.180255"
     inkscape:cy="15.860273"
     inkscape:document-units="px"
     inkscape:current-layer="layer1"
     showgrid="false"
     inkscape:window-width="1920"
     inkscape:window-height="1018"
     inkscape:window-x="-8"
     inkscape:window-y="-8"
     inkscape:window-maximized="1" />
  <metadata
     id="metadata7">
    <rdf:RDF>
      <cc:Work
         rdf:about="">
        <dc:format>image/svg+xml</dc:format>
        <dc:type
           rdf:resource="http://purl.org/dc/dcmitype/StillImage" />
        <dc:title></dc:title>
      </cc:Work>
    </rdf:RDF>
  </metadata>
  <g
     inkscape:label="Calque 1"
     inkscape:groupmode="layer"
     id="layer1"
     transform="translate(0,-952.36218)">
    <path
       style="fill:url(#radialGradient3902);fill-opacity:1;stroke:#000000;stroke-width:0.97154045;stroke-miterlimit:4;stroke-opacity:1;stroke-dasharray:none"
       d="m 41.395769,943.26843 c -6.778625,0 -12.611641,4.02754 -15.351852,9.86023 -2.300345,-1.5403 -5.047194,-2.44975 -8.007044,-2.44975 -8.0608688,0 -14.5993098,6.65143 -14.5993098,14.85159 0,0.52297 0.038448,1.05271 0.090305,1.56172 -6.5694986,2.47071 -11.2580244,9.02547 -11.2580244,16.75014 0,0.63607 -0.00193,1.27971 0.060203,1.89856 -2.7831798,3.15267 -4.4550468,7.26312 -4.4550468,11.72815 0,5.37883 2.453497,10.19483 6.3213503,13.50423 -2.457586,3.7881 -3.8831154,8.3197 -3.8831154,13.198 0,13.257 10.56797198,24.0075 23.5997091,24.0075 3.490016,0 6.802485,-0.7602 9.783043,-2.1435 1.325095,8.025 6.802965,14.0248 13.33504,14.0248 2.484846,0 4.797323,-0.8685 6.802977,-2.3885 0.06476,6.5178 7.004507,11.7894 15.562563,11.7894 7.042341,0 12.977454,-3.5561 14.900327,-8.4516 2.699842,1.9085 5.934152,3.0315 9.421822,3.0315 9.404346,0 17.037544,-8.0899 17.037544,-18.0668 0,-2.0568 -0.36644,-4.0375 -0.963252,-5.8794 4.585232,-2.0018 7.766232,-6.3733 7.766232,-11.4525 0,-4.0254 -2.00596,-7.6107 -5.11729,-9.9216 1.08997,-1.9268 1.7158,-4.086 1.7158,-6.3999 0,-2.7835 -0.90214,-5.3775 -2.43824,-7.5636 1.82962,-3.1964 2.91987,-6.97269 2.91987,-11.02389 0,-7.79339 -3.93002,-14.53902 -9.722843,-18.0975 -0.02934,-7.76222 -5.674776,-14.05542 -12.642701,-14.05542 -1.200734,0 -2.361148,0.20265 -3.461692,0.55119 -3.138031,-5.31189 -9.659084,-8.97219 -17.218155,-8.97219 -1.587418,0 -3.130109,0.18622 -4.605555,0.48994 -2.628569,-6.11566 -8.611667,-10.3808 -15.592665,-10.3808 z"
       id="path3866"
       inkscape:connector-curvature="0" />
  </g>
</svg>
